<svg xmlns="http://www.w3.org/2000/svg" viewBox="0 0 841.89 324.45"><defs><style>.cls-1{fill:#000000;}</style></defs><title>landscape</title><g id="Layer_2" data-name="Layer 2"><g id="Layer_1-2" data-name="Layer 1"><path class="cls-1" d="M0,145.46V2.81H58.91v22H26.05V61.31H50.29V84.55H26.05v38.87H60.31v22Z"/><path class="cls-1" d="M65.11,104.19H88.36c0,2.8.06,5.07.2,6.81a48.76,48.76,0,0,0,1.2,7.21,12.08,12.08,0,0,0,3.4,5.61c1.34,1.6,3.48,2.41,6.42,2.41a9.2,9.2,0,0,0,5.4-1.41,12.29,12.29,0,0,0,3.61-3.4,13.58,13.58,0,0,0,2-4.41,19,19,0,0,0,.6-4.61A20.47,20.47,0,0,0,107.79,101,57.52,57.52,0,0,0,99,91.36Q93,86.16,87.55,82A80.49,80.49,0,0,1,76.13,71.13,55.52,55.52,0,0,1,67.52,57.3a43.54,43.54,0,0,1-3.61-18.43,54.22,54.22,0,0,1,2.21-15.23,36.61,36.61,0,0,1,6.41-12.22A35.11,35.11,0,0,1,83.15,3,32.63,32.63,0,0,1,97.57,0a32.4,32.4,0,0,1,15,3.21A26.64,26.64,0,0,1,122.82,12a43.2,43.2,0,0,1,5.81,13.83,107.22,107.22,0,0,1,2,17.63H107.39q0-4.21-.2-6.81a43.42,43.42,0,0,0-1-7A12.08,12.08,0,0,0,103,24.24,8.15,8.15,0,0,0,97,22a8.72,8.72,0,0,0-7.21,3.61q-2.61,3.41-2.61,9.41a19.05,19.05,0,0,0,3.61,11,49.13,49.13,0,0,0,8.62,9.62q4.4,4,11.42,9.82a70.38,70.38,0,0,1,11.42,11.22,72.18,72.18,0,0,1,8.81,14A46.26,46.26,0,0,1,134.44,109a51.8,51.8,0,0,1-2.21,15.23,36.35,36.35,0,0,1-6.81,12.42,29.59,29.59,0,0,1-11.22,8.42,35.59,35.59,0,0,1-15.63,3.2q-10.41,0-16.83-4.2a28.28,28.28,0,0,1-10.21-10.42,36,36,0,0,1-5-14.23A79.22,79.22,0,0,1,65.11,104.19Z"/><path class="cls-1" d="M170.7,145.46V2.81h26.05V145.46Z"/><path class="cls-1" d="M207.17,104.19h23.24q0,4.2.2,6.81a51.53,51.53,0,0,0,1.2,7.21,12.09,12.09,0,0,0,3.41,5.61c1.33,1.6,3.47,2.41,6.41,2.41a9.25,9.25,0,0,0,5.41-1.41,12.41,12.41,0,0,0,3.61-3.4,13.36,13.36,0,0,0,2-4.41,19,19,0,0,0,.6-4.61A20.47,20.47,0,0,0,249.84,101,57.43,57.43,0,0,0,241,91.36q-6-5.2-11.42-9.41a80,80,0,0,1-11.42-10.82,55.56,55.56,0,0,1-8.62-13.83A43.69,43.69,0,0,1,206,38.87a54.57,54.57,0,0,1,2.2-15.23,37,37,0,0,1,6.41-12.22A35.23,35.23,0,0,1,225.2,3a36.42,36.42,0,0,1,29.45.2A26.56,26.56,0,0,1,264.87,12a43,43,0,0,1,5.81,13.83,106.15,106.15,0,0,1,2,17.63H249.44q0-4.21-.2-6.81a43.42,43.42,0,0,0-1-7,12,12,0,0,0-3.2-5.41,8.19,8.19,0,0,0-6-2.2,8.73,8.73,0,0,0-7.21,3.61q-2.61,3.41-2.6,9.41a19,19,0,0,0,3.6,11,49.79,49.79,0,0,0,8.62,9.62q4.41,4,11.42,9.82a69.58,69.58,0,0,1,11.42,11.22,72.24,72.24,0,0,1,8.82,14,46.26,46.26,0,0,1,3.4,18.23,51.79,51.79,0,0,1-2.2,15.23,36.69,36.69,0,0,1-6.81,12.42,29.67,29.67,0,0,1-11.22,8.42,35.59,35.59,0,0,1-15.63,3.2q-10.42,0-16.83-4.2a28.31,28.31,0,0,1-10.22-10.42,36,36,0,0,1-5-14.23A79.24,79.24,0,0,1,207.17,104.19Z"/><path class="cls-1" d="M298.73,145.46V24.84H276.29v-22h70.93v22H324.78V145.46Z"/><path class="cls-1" d="M403.92,145.46l-19-142.65h23.64l9.22,83.74h.4L430.56,2.81H454l11.42,83.74h.41L476,2.81h18.64L476,145.46H452.4L440,55.1h-.4l-12.82,90.36Z"/><path class="cls-1" d="M502.89,145.46V2.81h26.05V145.46Z"/><path class="cls-1" d="M544.76,145.46V2.81h58.91v22H570.81V61.31h24.24V84.55H570.81v38.87h34.26v22Z"/><path class="cls-1" d="M615.29,145.46V2.81h22.64q16.62,0,26.05,5A34.2,34.2,0,0,1,678.4,22.24q4.61,9,6.21,22.44,1.2,13.23,1.21,29.45,0,15.63-1.21,28.45-1.2,13.64-5.61,22.64a33,33,0,0,1-13,14.83q-8.82,5.41-23.84,5.41ZM641.34,24.84v98.58q6.4,0,9.61-1.8,3.4-1.61,5.21-6.82a56.27,56.27,0,0,0,2-15q.39-12.82.4-25.85t-.4-25.84a55.57,55.57,0,0,0-2-14.83q-1.8-5-5.21-6.81A24,24,0,0,0,641.34,24.84Z"/><path class="cls-1" d="M700.64,145.46V2.81h58.9v22H726.69V61.31h24.24V84.55H726.69v38.87H761v22Z"/><path class="cls-1" d="M771.16,145.46V2.81h29.26a63.46,63.46,0,0,1,16.83,2,31.22,31.22,0,0,1,21.43,19.43q3,7.82,3,19a84.3,84.3,0,0,1-.6,9.61,61.32,61.32,0,0,1-2.61,9.82,39.24,39.24,0,0,1-4.6,8.82,25.17,25.17,0,0,1-7.42,6.61l15.43,67.32H815.64L803.42,84.15h-6.21v61.31ZM797.21,23.64V63.31h5.21a11.43,11.43,0,0,0,10.22-6.21,22.92,22.92,0,0,0,2.4-6.21,45,45,0,0,0,.6-7.41q0-11.82-3.8-15.83a14.37,14.37,0,0,0-10.62-4Z"/><path class="cls-1" d="M0,321.59V176.13H23.09q17,0,26.55,5.11A34.8,34.8,0,0,1,64.35,196q4.7,9.2,6.34,22.88,1.22,13.48,1.22,30,0,15.93-1.22,29Q69.46,291.76,65,301a33.64,33.64,0,0,1-13.28,15.12q-9,5.52-24.31,5.52Zm26.56-123V299.12c4.36,0,7.62-.62,9.8-1.84s4.09-3.41,5.32-6.95a57.52,57.52,0,0,0,2-15.32q.41-13.08.41-26.36t-.41-26.35a56.68,56.68,0,0,0-2-15.12q-1.84-5.1-5.32-6.94A24.46,24.46,0,0,0,26.56,198.6Z"/><path class="cls-1" d="M86,284.81q-2.87-14.9-2.86-35.95t2.86-36q2.85-14.91,7.76-23.29A34.2,34.2,0,0,1,106,177a36.34,36.34,0,0,1,31.87,0,34.35,34.35,0,0,1,12.26,12.66q5.1,9,8,23.29,2.65,13.9,2.66,36t-2.66,35.95q-2.87,14.31-8,23.29-5.11,8.79-12.26,12.47a34.66,34.66,0,0,1-31.87,0q-7.16-3.69-12.26-12.47Q88.87,299.73,86,284.81Zm26.15-51.27v30.64a168.58,168.58,0,0,0,.81,19.2,55.91,55.91,0,0,0,1.84,11.45q1.23,4.08,3.07,5.72a6.55,6.55,0,0,0,8.17,0,12.37,12.37,0,0,0,3.06-5.72,76.3,76.3,0,0,0,2-11.45q.61-7.35.61-19.2V233.54q0-11.85-.61-19.21a76.36,76.36,0,0,0-2-11.44c-.81-2.86-1.84-4.76-3.06-5.72a6.55,6.55,0,0,0-8.17,0c-1.23,1-2.25,2.86-3.07,5.72A56,56,0,0,0,113,214.33,168.9,168.9,0,0,0,112.16,233.54Z"/><path class="cls-1" d="M173,321.59V176.13H199L223.29,253h.41V176.13H245V321.59H224.31l-28.39-88h-.41v88Z"/><path class="cls-1" d="M260.06,321.59V176.13H286L310.32,253h.41V176.13H332V321.59H311.34l-28.39-88h-.41v88Z"/><path class="cls-1" d="M348.11,321.59V176.13h60.07V198.6H374.67v37.18h24.72v23.7H374.67v39.64h34.94v22.47Z"/><path class="cls-1" d="M420,321.59V176.13h29.83a64.5,64.5,0,0,1,17.16,2A31.85,31.85,0,0,1,488.87,198q3.08,8,3.07,19.41a85.74,85.74,0,0,1-.62,9.8,62.39,62.39,0,0,1-2.65,10,40.16,40.16,0,0,1-4.7,9,25.51,25.51,0,0,1-7.56,6.75l15.73,68.64H465.38l-12.46-62.52h-6.34v62.52Zm26.56-124.21v40.45h5.32a11.63,11.63,0,0,0,10.41-6.34,23.57,23.57,0,0,0,2.46-6.33,46.84,46.84,0,0,0,.61-7.56q0-12-3.88-16.14-4.1-4.08-10.83-4.08Z"/><path class="cls-1" d="M497.66,279.5h23.69q0,4.29.21,6.95a50.39,50.39,0,0,0,1.23,7.35,12.07,12.07,0,0,0,3.47,5.72q2,2.46,6.54,2.46a9.47,9.47,0,0,0,5.51-1.43,12.69,12.69,0,0,0,3.68-3.48,13.55,13.55,0,0,0,2-4.49,19.32,19.32,0,0,0,.61-4.7,20.85,20.85,0,0,0-3.47-11.65,59.25,59.25,0,0,0-9-9.8q-6.12-5.31-11.64-9.6a80.46,80.46,0,0,1-11.65-11,56.68,56.68,0,0,1-8.78-14.09,44.53,44.53,0,0,1-3.68-18.8,55.5,55.5,0,0,1,2.25-15.52,37.63,37.63,0,0,1,6.54-12.47A36.05,36.05,0,0,1,516,176.33a33.45,33.45,0,0,1,14.71-3.06,33.05,33.05,0,0,1,15.32,3.27,27.06,27.06,0,0,1,10.42,9,43.75,43.75,0,0,1,5.93,14.09,109.06,109.06,0,0,1,2,18h-23.7q0-4.29-.2-6.94a44.5,44.5,0,0,0-1-7.15,12.21,12.21,0,0,0-3.27-5.52,8.29,8.29,0,0,0-6.13-2.25,8.9,8.9,0,0,0-7.35,3.68q-2.67,3.48-2.66,9.6a19.36,19.36,0,0,0,3.68,11.24,50.61,50.61,0,0,0,8.78,9.8q4.5,4.09,11.65,10a72.31,72.31,0,0,1,11.64,11.44,73.71,73.71,0,0,1,9,14.31,47.18,47.18,0,0,1,3.47,18.59,53.09,53.09,0,0,1-2.24,15.52,37.53,37.53,0,0,1-7,12.67,30.19,30.19,0,0,1-11.44,8.58,36.19,36.19,0,0,1-15.94,3.27q-10.62,0-17.16-4.29a28.88,28.88,0,0,1-10.42-10.63,36.63,36.63,0,0,1-5.1-14.5A80.71,80.71,0,0,1,497.66,279.5Z"/><path class="cls-1" d="M591,321.59v-123H568.14V176.13h72.32V198.6H617.58v123Z"/><path class="cls-1" d="M639.64,321.59l20.43-145.46h38.41l18,145.46H690.92L687,289.31H665.59l-3.68,32.28Zm45.15-53.53L677,198.6h-.41l-8.38,69.46Z"/><path class="cls-1" d="M795.11,228h-23.7q0-4.29.2-8a66.49,66.49,0,0,0-.81-10.82,30,30,0,0,0-2.86-9.4q-2.25-4.1-6.34-4.09a7.61,7.61,0,0,0-4.49,1.64q-2.25,1.83-3.68,7.35A111.18,111.18,0,0,0,751,220.67q-.83,9.2-.82,28,0,19.21.82,28.4a82.57,82.57,0,0,0,2.45,16.14q1.64,5.52,4.09,7.15a8.77,8.77,0,0,0,5.31,1.64,6.57,6.57,0,0,0,5.92-3.27,23.52,23.52,0,0,0,3.27-7.77,66.63,66.63,0,0,0,1.43-8.78c.14-2,.21-4.43.21-7.15h-9.81V253.76h32.28v67.83H784.89l-3.67-9.6a32.25,32.25,0,0,1-8.59,8.58,20.59,20.59,0,0,1-12.46,3.88q-10.83,0-17.77-5.11a36,36,0,0,1-11.65-14.91q-4.49-9.19-6.33-23.7a211.08,211.08,0,0,1-2-31.87q0-20.84,3.06-35.34,2.87-14.51,8-23.29,5.52-9.4,12.05-13.08a28.33,28.33,0,0,1,14.71-3.88,46.56,46.56,0,0,1,12.67,1.84,25.81,25.81,0,0,1,11.23,6.74,36.17,36.17,0,0,1,8,13.89q3.08,9,3.07,22.88Z"/><path class="cls-1" d="M820,278.28l-7.15-102.15h29l-7.15,102.15Zm-5.92,43.31V295h26.55v26.56Z"/></g></g></svg>
