<svg xmlns="http://www.w3.org/2000/svg" viewBox="0 0 595.28 711.97"><defs><style>.cls-1{fill:#000000;}</style></defs><title>portrait</title><g id="Layer_2" data-name="Layer 2"><g id="Layer_1-2" data-name="Layer 1"><path class="cls-1" d="M112.23,155.35V3h62.91V26.53H140.05v39h25.89V90.3H140.05v41.51h36.59v23.54Z"/><path class="cls-1" d="M181.77,111.27h24.82c0,3,.07,5.42.21,7.27a54.71,54.71,0,0,0,1.29,7.71,12.79,12.79,0,0,0,3.64,6q2.13,2.56,6.84,2.57a9.9,9.9,0,0,0,5.78-1.5,13.32,13.32,0,0,0,3.85-3.64,14.08,14.08,0,0,0,2.14-4.71A20.15,20.15,0,0,0,231,120a21.91,21.91,0,0,0-3.63-12.2,62.29,62.29,0,0,0-9.42-10.27q-6.42-5.55-12.2-10A85.32,85.32,0,0,1,193.54,76a59.17,59.17,0,0,1-9.2-14.76,46.61,46.61,0,0,1-3.86-19.69,58.2,58.2,0,0,1,2.36-16.26,39.23,39.23,0,0,1,6.85-13,37.56,37.56,0,0,1,11.34-9,39,39,0,0,1,31.45.21,28.36,28.36,0,0,1,10.91,9.42A46,46,0,0,1,249.6,27.6a115.23,115.23,0,0,1,2.14,18.83H226.92c0-3-.08-5.42-.22-7.27a44.94,44.94,0,0,0-1.07-7.49,12.75,12.75,0,0,0-3.42-5.78,8.67,8.67,0,0,0-6.42-2.35,9.31,9.31,0,0,0-7.7,3.85Q205.3,31,205.31,37.45a20.26,20.26,0,0,0,3.85,11.76,52.8,52.8,0,0,0,9.2,10.28q4.71,4.27,12.2,10.48a75.42,75.42,0,0,1,12.19,12,77.47,77.47,0,0,1,9.42,15,49.48,49.48,0,0,1,3.63,19.47,55.38,55.38,0,0,1-2.35,16.27,39.1,39.1,0,0,1-7.27,13.26,31.71,31.71,0,0,1-12,9,37.89,37.89,0,0,1-16.69,3.42q-11.13,0-18-4.49a30.11,30.11,0,0,1-10.91-11.13,38.2,38.2,0,0,1-5.35-15.19A85,85,0,0,1,181.77,111.27Z"/><path class="cls-1" d="M294.54,155.35V3h27.81V155.35Z"/><path class="cls-1" d="M333.48,111.27H358.3c0,3,.07,5.42.21,7.27a54.71,54.71,0,0,0,1.29,7.71,12.79,12.79,0,0,0,3.64,6q2.13,2.56,6.84,2.57a9.9,9.9,0,0,0,5.78-1.5,13.32,13.32,0,0,0,3.85-3.64,14.08,14.08,0,0,0,2.14-4.71,20.15,20.15,0,0,0,.64-4.92,21.91,21.91,0,0,0-3.63-12.2,62.29,62.29,0,0,0-9.42-10.27q-6.42-5.55-12.2-10A85.32,85.32,0,0,1,345.25,76a59.17,59.17,0,0,1-9.2-14.76,46.61,46.61,0,0,1-3.86-19.69,58.2,58.2,0,0,1,2.36-16.26,39.23,39.23,0,0,1,6.85-13,37.56,37.56,0,0,1,11.34-9,39,39,0,0,1,31.45.21,28.36,28.36,0,0,1,10.91,9.42,46,46,0,0,1,6.21,14.76,115.23,115.23,0,0,1,2.14,18.83H378.63c0-3-.08-5.42-.22-7.27a44.94,44.94,0,0,0-1.07-7.49,12.75,12.75,0,0,0-3.42-5.78,8.67,8.67,0,0,0-6.42-2.35,9.31,9.31,0,0,0-7.7,3.85Q357,31,357,37.45a20.26,20.26,0,0,0,3.85,11.76,52.8,52.8,0,0,0,9.2,10.28q4.71,4.27,12.2,10.48a75.42,75.42,0,0,1,12.19,12,77.47,77.47,0,0,1,9.42,15,49.48,49.48,0,0,1,3.63,19.47,55.38,55.38,0,0,1-2.35,16.27,39.1,39.1,0,0,1-7.27,13.26,31.71,31.71,0,0,1-12,9,37.89,37.89,0,0,1-16.69,3.42q-11.13,0-18-4.49a30.11,30.11,0,0,1-10.91-11.13A38.2,38.2,0,0,1,335,127.53,85,85,0,0,1,333.48,111.27Z"/><path class="cls-1" d="M431.27,155.35V26.53h-24V3h75.75V26.53h-24V155.35Z"/><path class="cls-1" d="M73.93,340.39,53.6,188H78.85l9.84,89.44h.43L102.39,188h25l12.2,89.44h.43L151,188h19.9L151,340.39H125.71l-13.27-96.5H112l-13.7,96.5Z"/><path class="cls-1" d="M179.63,340.39V188h27.82V340.39Z"/><path class="cls-1" d="M224.35,340.39V188h62.91v23.54H252.17v38.94h25.89v24.82H252.17v41.52h36.59v23.53Z"/><path class="cls-1" d="M299.67,340.39V188h24.18q17.76,0,27.82,5.35a36.46,36.46,0,0,1,15.4,15.41q4.92,9.63,6.64,24Q375,246.89,375,264.22q0,16.68-1.28,30.38-1.29,14.56-6,24.18a35.34,35.34,0,0,1-13.91,15.84q-9.42,5.78-25.47,5.77Zm27.82-128.81V316.86q6.84,0,10.27-1.93,3.63-1.71,5.56-7.27a59.5,59.5,0,0,0,2.14-16.05q.44-13.69.43-27.61t-.43-27.6a58.56,58.56,0,0,0-2.14-15.83q-1.92-5.35-5.56-7.28A25.68,25.68,0,0,0,327.49,211.58Z"/><path class="cls-1" d="M390.82,340.39V188h62.91v23.54H418.64v38.94h25.89v24.82H418.64v41.52h36.59v23.53Z"/><path class="cls-1" d="M466.14,340.39V188h31.24a67.82,67.82,0,0,1,18,2.14,33.39,33.39,0,0,1,22.89,20.76q3.21,8.34,3.21,20.33a89.55,89.55,0,0,1-.64,10.27A66.35,66.35,0,0,1,538,252a42.73,42.73,0,0,1-4.92,9.42,26.84,26.84,0,0,1-7.92,7.06l16.47,71.89h-28l-13.06-65.47H494v65.47ZM494,210.3v42.36h5.56a11.42,11.42,0,0,0,6.64-1.92,11.53,11.53,0,0,0,4.27-4.71A24.46,24.46,0,0,0,513,239.4a47.92,47.92,0,0,0,.65-7.92q0-12.63-4.07-16.9-4.29-4.29-11.34-4.28Z"/><path class="cls-1" d="M0,524.63V372.28H24.18q17.76,0,27.82,5.35A36.44,36.44,0,0,1,67.4,393q4.92,9.63,6.64,24,1.27,14.12,1.28,31.45,0,16.69-1.28,30.39Q72.75,493.39,68,503a35.19,35.19,0,0,1-13.9,15.83q-9.42,5.77-25.47,5.78ZM27.82,395.81V501.09q6.84,0,10.27-1.93,3.63-1.71,5.56-7.27a59.5,59.5,0,0,0,2.14-16.05q.43-13.69.43-27.6t-.43-27.6a58.64,58.64,0,0,0-2.14-15.84q-1.92-5.34-5.56-7.27A25.66,25.66,0,0,0,27.82,395.81Z"/><path class="cls-1" d="M90.08,486.11q-3-15.62-3-37.66t3-37.66q3-15.62,8.13-24.39,5.36-9,12.84-13.27a38.1,38.1,0,0,1,33.38,0q7.5,4.29,12.84,13.27,5.35,9.42,8.35,24.39,2.77,14.56,2.78,37.66t-2.78,37.66q-3,15-8.35,24.4-5.36,9.19-12.84,13a33.62,33.62,0,0,1-16.69,4.06,33.62,33.62,0,0,1-16.69-4.06q-7.48-3.85-12.84-13Q93.08,501.74,90.08,486.11Zm27.39-53.71v32.1a175,175,0,0,0,.86,20.11,58.63,58.63,0,0,0,1.92,12q1.29,4.27,3.21,6a6.86,6.86,0,0,0,8.56,0q1.93-1.71,3.21-6a78.62,78.62,0,0,0,2.14-12q.65-7.69.64-20.11V432.4q0-12.4-.64-20.11a78.68,78.68,0,0,0-2.14-12c-.85-3-1.92-5-3.21-6a6.86,6.86,0,0,0-8.56,0c-1.28,1-2.35,3-3.21,6a58.51,58.51,0,0,0-1.92,12A175.27,175.27,0,0,0,117.47,432.4Z"/><path class="cls-1" d="M181.24,524.63V372.28h27.17l25.46,80.45h.43V372.28h22.26V524.63H234.94L205.2,432.4h-.43v92.23Z"/><path class="cls-1" d="M272.39,524.63V372.28h27.17L325,452.73h.43V372.28h22.25V524.63H326.1L296.35,432.4h-.42v92.23Z"/><path class="cls-1" d="M364.61,524.63V372.28h62.91v23.53H392.43v38.95h25.89v24.82H392.43v41.51H429v23.54Z"/><path class="cls-1" d="M439.93,524.63V372.28h31.24a67.28,67.28,0,0,1,18,2.14,33.78,33.78,0,0,1,13.91,7.48,34.26,34.26,0,0,1,9,13.27q3.21,8.34,3.21,20.33a89.55,89.55,0,0,1-.64,10.27,65.68,65.68,0,0,1-2.79,10.49,41.82,41.82,0,0,1-4.92,9.41,26.79,26.79,0,0,1-7.91,7.06l16.47,71.9h-28l-13.05-65.48h-6.63v65.48Zm27.82-130.1V436.9h5.56a11.3,11.3,0,0,0,6.63-1.93,11.49,11.49,0,0,0,4.28-4.71,24.53,24.53,0,0,0,2.57-6.63,47.83,47.83,0,0,0,.64-7.92q0-12.61-4.06-16.9-4.29-4.28-11.34-4.28Z"/><path class="cls-1" d="M521.24,480.55h24.82c0,3,.07,5.42.22,7.27a53.37,53.37,0,0,0,1.28,7.71,12.87,12.87,0,0,0,3.64,6q2.13,2.57,6.84,2.57a9.9,9.9,0,0,0,5.78-1.5,13.2,13.2,0,0,0,3.85-3.64,14.08,14.08,0,0,0,2.14-4.71,20.15,20.15,0,0,0,.64-4.92,21.91,21.91,0,0,0-3.63-12.2,62.29,62.29,0,0,0-9.42-10.27Q551,461.3,545.21,456.8A84.86,84.86,0,0,1,533,445.24a59.17,59.17,0,0,1-9.2-14.76Q520,422.14,520,410.79a58.19,58.19,0,0,1,2.35-16.26,39.23,39.23,0,0,1,6.85-13,37.56,37.56,0,0,1,11.34-9,39,39,0,0,1,31.45.21,28.36,28.36,0,0,1,10.91,9.42,46,46,0,0,1,6.21,14.76,115.23,115.23,0,0,1,2.14,18.83H566.39c0-3-.07-5.42-.22-7.27a46.3,46.3,0,0,0-1.06-7.49,12.86,12.86,0,0,0-3.43-5.78,8.67,8.67,0,0,0-6.42-2.35,9.31,9.31,0,0,0-7.7,3.85q-2.79,3.65-2.78,10.06a20.31,20.31,0,0,0,3.85,11.77,53.06,53.06,0,0,0,9.2,10.27q4.71,4.28,12.2,10.48a75.42,75.42,0,0,1,12.19,12,77.47,77.47,0,0,1,9.42,15,49.48,49.48,0,0,1,3.64,19.47A55.38,55.38,0,0,1,592.92,502a39.1,39.1,0,0,1-7.27,13.26,31.71,31.71,0,0,1-12,9A37.89,37.89,0,0,1,557,527.62q-11.13,0-18-4.49A30.19,30.19,0,0,1,528.09,512a38.35,38.35,0,0,1-5.35-15.19A84.88,84.88,0,0,1,521.24,480.55Z"/><path class="cls-1" d="M178.24,709V580.16h-24V556.62H230v23.54h-24V709Z"/><path class="cls-1" d="M229.17,709l21.39-152.36h40.23L309.62,709H282.88l-4.07-33.81H256.34L252.49,709Zm47.29-56.07-8.14-72.75h-.42l-8.78,72.75Z"/><path class="cls-1" d="M392,611H367.18q0-4.49.21-8.34a69.26,69.26,0,0,0-.85-11.34,31,31,0,0,0-3-9.84c-1.57-2.86-3.78-4.28-6.63-4.28a8,8,0,0,0-4.71,1.71c-1.57,1.28-2.86,3.85-3.85,7.7a115.34,115.34,0,0,0-2.57,16.69q-.86,9.63-.85,29.32,0,20.11.85,29.74.86,11.13,2.57,16.9t4.28,7.49a9.14,9.14,0,0,0,5.56,1.71A6.9,6.9,0,0,0,364.4,685a24.84,24.84,0,0,0,3.42-8.13,70.19,70.19,0,0,0,1.5-9.2q.21-3.21.21-7.49H359.26V637.94h33.81v71H381.3l-3.85-10.06a33.65,33.65,0,0,1-9,9,21.59,21.59,0,0,1-13,4.06q-11.34,0-18.62-5.35A37.65,37.65,0,0,1,324.6,691q-4.71-9.63-6.64-24.82a221.53,221.53,0,0,1-2.14-33.38q0-21.82,3.21-37,3-15.18,8.35-24.39,5.78-9.84,12.62-13.7a29.71,29.71,0,0,1,15.41-4.06,48.74,48.74,0,0,1,13.27,1.93,27.12,27.12,0,0,1,11.77,7.06,38.05,38.05,0,0,1,8.34,14.55q3.21,9.42,3.21,24Z"/><path class="cls-1" d="M418.11,663.61l-7.49-107H441l-7.49,107ZM411.9,709V681.16h27.82V709Z"/></g></g></svg>
