<?xml version="1.0" standalone="no"?>
<!DOCTYPE svg PUBLIC "-//W3C//DTD SVG 20010904//EN"
 "http://www.w3.org/TR/2001/REC-SVG-20010904/DTD/svg10.dtd">
<svg version="1.0" xmlns="http://www.w3.org/2000/svg"
 width="250.000000pt" height="250.000000pt" viewBox="0 0 250.000000 250.000000"
 preserveAspectRatio="xMidYMid meet">
<metadata>
Created by potrace 1.11, written by Peter Selinger 2001-2013
</metadata>
<g transform="translate(0.000000,250.000000) scale(0.100000,-0.100000)"
fill="#000000" stroke="none">
<path d="M1124 2366 c-3 -8 1 -93 10 -190 9 -96 16 -182 16 -191 0 -13 8 -16
38 -13 36 3 37 4 36 43 0 22 -7 113 -14 203 l-13 162 -34 0 c-20 0 -36 -6 -39
-14z"/>
<path d="M1327 2369 c-41 -24 -61 -114 -35 -162 6 -12 28 -42 48 -67 46 -55
52 -73 36 -96 -18 -24 -44 -12 -48 23 -2 23 -8 29 -35 31 -32 3 -33 3 -33 -38
0 -33 6 -48 29 -71 54 -54 136 -30 161 47 18 52 6 89 -51 163 -52 68 -61 106
-24 106 14 0 21 -8 23 -27 2 -16 9 -28 15 -28 7 0 22 -3 35 -6 20 -6 22 -3 22
36 0 75 -80 125 -143 89z"/>
<path d="M1535 2313 c-3 -15 -2 -29 3 -31 5 -1 17 -8 26 -15 15 -11 12 -25
-39 -160 -30 -81 -55 -151 -55 -156 0 -12 62 -33 70 -24 4 5 31 74 61 156 l54
147 30 -6 c26 -5 33 -2 43 20 14 30 10 33 -96 71 -86 31 -88 31 -97 -2z"/>
<path d="M749 2261 c-31 -31 -36 -61 -18 -108 17 -47 50 -72 118 -93 76 -24
91 -35 91 -66 0 -35 -20 -40 -45 -12 -17 20 -25 23 -48 15 -37 -12 -34 -39 8
-76 40 -35 52 -37 100 -17 40 17 55 42 55 91 0 72 -34 109 -130 140 -63 20
-90 40 -90 67 0 25 34 23 51 -3 13 -18 17 -19 42 -8 34 15 34 29 1 68 -36 43
-93 44 -135 2z"/>
<path d="M541 2130 c-33 -29 -61 -54 -61 -57 0 -2 57 -74 126 -159 l126 -154
64 53 c35 28 64 57 64 63 0 6 -9 19 -20 29 -19 17 -20 16 -50 -9 -18 -14 -35
-26 -40 -26 -4 0 -20 16 -35 36 l-27 35 22 24 c21 22 21 24 5 49 -21 31 -23
32 -52 4 -13 -12 -24 -19 -25 -17 -2 2 -16 19 -32 36 l-30 33 38 32 38 33 -25
23 -24 23 -62 -51z"/>
<path d="M1787 2018 l-116 -163 21 -22 c12 -13 25 -23 29 -23 4 0 43 29 88 65
45 36 81 63 81 61 0 -3 -28 -45 -61 -92 l-61 -86 25 -25 25 -25 156 127 c86
70 156 131 156 135 0 4 -8 14 -18 23 -16 15 -23 12 -95 -49 -42 -36 -77 -63
-77 -60 0 3 25 40 55 82 30 42 55 80 55 83 0 3 -12 14 -26 25 l-26 18 -81 -63
c-91 -70 -91 -75 10 60 l33 44 -22 24 c-12 13 -24 23 -28 23 -4 0 -59 -73
-123 -162z"/>
<path d="M2025 1769 c-88 -54 -164 -100 -169 -102 -11 -4 24 -67 36 -67 9 0
286 166 322 193 17 13 17 15 2 45 -9 18 -20 32 -24 31 -4 0 -79 -45 -167 -100z"/>
<path d="M281 1829 l-20 -33 65 -36 c36 -20 92 -50 125 -65 55 -27 61 -28 76
-12 9 9 15 18 12 20 -17 15 -215 150 -225 154 -7 3 -22 -10 -33 -28z"/>
<path d="M2092 1636 c-95 -35 -175 -66 -178 -69 -4 -3 6 -40 21 -82 28 -76 38
-85 75 -65 17 9 18 13 4 45 -7 19 -14 39 -14 44 0 7 80 41 96 41 1 0 5 -13 9
-30 4 -16 10 -30 15 -30 23 0 61 22 57 33 -19 51 -18 53 22 65 55 17 57 16 70
-28 6 -22 14 -40 16 -40 11 0 55 24 55 30 0 26 -50 145 -61 147 -8 1 -92 -27
-187 -61z"/>
<path d="M566 1668 c-23 -32 -20 -45 13 -62 31 -17 37 -14 60 31 10 20 8 24
-18 38 -38 19 -37 19 -55 -7z"/>
<path d="M187 1620 c-32 -38 -34 -64 -7 -108 34 -55 180 -112 288 -112 44 0
57 5 79 26 21 21 25 32 20 62 -3 25 0 42 10 51 20 19 10 25 -85 54 l-83 25 -8
-21 c-24 -63 -23 -67 6 -78 19 -7 29 -7 31 0 5 16 24 14 50 -5 32 -22 11 -47
-32 -39 -112 23 -226 69 -226 90 0 14 9 16 47 13 43 -3 47 -1 56 25 5 16 6 31
3 35 -4 3 -33 8 -64 10 -56 4 -60 3 -85 -28z"/>
<path d="M1060 1555 c-58 -24 -75 -49 -40 -58 18 -5 20 -13 20 -76 l0 -70 -47
5 c-63 7 -110 -18 -143 -77 -22 -38 -25 -56 -25 -140 0 -87 2 -99 27 -137 44
-66 116 -75 174 -21 l22 20 6 -25 c7 -30 30 -33 83 -11 l36 15 -21 23 c-21 23
-22 30 -22 295 0 149 -3 273 -7 275 -5 2 -33 -6 -63 -18z m-32 -253 c8 -11 12
-56 12 -139 0 -118 -1 -123 -24 -138 -68 -45 -132 83 -106 210 17 84 77 118
118 67z"/>
<path d="M1577 1522 c-21 -23 -21 -71 -3 -154 8 -35 18 -107 21 -160 5 -68 11
-98 20 -98 8 0 14 30 19 98 4 53 13 124 21 157 20 85 19 138 -3 158 -24 22
-55 21 -75 -1z"/>
<path d="M2245 1399 c-66 -4 -155 -7 -197 -8 l-78 -1 0 -52 c0 -120 49 -153
211 -145 114 6 161 24 183 72 16 34 21 112 8 130 -4 6 -51 8 -127 4z m65 -88
c0 -20 -31 -29 -126 -36 -70 -5 -108 -3 -123 4 -50 27 -17 35 167 39 45 1 82
-2 82 -7z"/>
<path d="M320 1344 c-102 -12 -188 -23 -192 -23 -7 -1 -12 -111 -5 -111 2 0
93 -13 202 -30 109 -16 200 -30 202 -30 2 0 3 16 3 35 0 32 -2 35 -29 35 -44
0 -61 10 -61 35 0 23 22 35 68 35 19 0 22 5 22 40 0 26 -4 40 -12 39 -7 -1
-96 -12 -198 -25z m53 -90 c-5 -13 -15 -15 -51 -10 -25 3 -54 6 -66 7 -39 2
24 17 76 18 40 1 46 -2 41 -15z"/>
<path d="M1294 1346 c-81 -36 -128 -149 -105 -251 52 -230 346 -178 344 60 -1
74 -27 132 -78 171 -43 32 -114 41 -161 20z m89 -27 c32 -15 45 -44 53 -122
12 -121 -27 -222 -83 -215 -46 5 -66 47 -71 145 -4 107 13 172 48 190 30 15
24 15 53 2z"/>
<path d="M1955 1089 c-14 -68 -15 -83 -4 -90 29 -19 53 -5 62 36 6 22 11 41
12 43 1 2 24 -2 50 -9 46 -12 47 -13 41 -44 -6 -28 -3 -33 16 -39 39 -10 46
-7 53 24 7 33 13 35 66 20 l37 -10 -10 -41 c-12 -46 -10 -49 28 -52 27 -2 29
1 46 73 9 41 14 78 10 81 -6 6 -366 89 -383 89 -3 0 -14 -37 -24 -81z"/>
<path d="M515 1124 c-5 -2 -77 -19 -158 -38 l-148 -34 -6 30 c-5 27 -9 29 -36
24 -17 -3 -32 -8 -34 -10 -2 -2 6 -47 18 -100 21 -89 24 -97 43 -92 12 3 27 6
34 6 9 0 11 10 7 33 l-7 33 151 34 c83 19 156 37 162 41 8 4 9 20 5 43 -7 35
-10 39 -31 30z"/>
<path d="M1576 1047 c-21 -16 -24 -60 -6 -82 19 -23 66 -19 84 7 21 30 20 44
-4 68 -23 23 -49 26 -74 7z"/>
<path d="M1915 960 c-8 -16 -15 -31 -15 -34 0 -2 32 -22 70 -42 39 -21 70 -41
70 -45 0 -4 -35 4 -77 17 -43 13 -81 24 -85 24 -4 0 -15 -14 -24 -31 -19 -38
-18 -39 82 -64 68 -17 79 -23 97 -52 22 -38 82 -73 125 -73 39 0 72 28 105 88
l27 50 -32 20 c-46 28 -317 172 -323 172 -2 0 -11 -13 -20 -30z m235 -172 c47
-27 52 -48 12 -48 -33 0 -74 34 -66 55 8 19 8 19 54 -7z"/>
<path d="M494 969 c-46 -13 -89 -68 -104 -130 -15 -67 -35 -99 -59 -99 -28 0
-31 22 -8 47 17 19 19 27 9 48 -15 32 -24 31 -64 -4 -45 -40 -45 -92 0 -132
39 -35 73 -37 127 -6 41 23 59 56 85 154 12 48 42 72 66 52 19 -16 18 -25 -6
-47 -18 -17 -19 -23 -9 -46 16 -34 28 -33 67 5 54 53 38 125 -34 155 -18 8
-35 14 -36 13 -2 0 -17 -5 -34 -10z"/>
<path d="M601 740 c-37 -58 -56 -80 -71 -80 -52 0 -120 -67 -120 -119 0 -31
23 -71 64 -110 l36 -35 132 129 c73 71 139 135 147 142 13 11 12 16 -9 38 -13
14 -28 25 -35 25 -6 0 -35 -25 -65 -55 -29 -30 -56 -53 -58 -51 -2 2 18 36 44
75 l47 71 -23 25 c-13 14 -27 25 -31 25 -4 0 -30 -36 -58 -80z m-35 -161 c6
-10 -52 -79 -67 -79 -19 0 -15 33 7 60 27 31 48 38 60 19z"/>
<path d="M1700 681 c-50 -47 -53 -52 -48 -89 7 -49 63 -138 128 -203 42 -42
55 -49 88 -49 35 0 119 42 135 67 6 10 -229 323 -242 323 -5 0 -32 -22 -61
-49z m119 -146 c85 -113 91 -125 62 -125 -26 0 -151 162 -151 197 0 12 4 23 9
23 5 0 41 -43 80 -95z"/>
<path d="M800 641 c-16 -30 -13 -36 25 -57 19 -10 35 -22 35 -25 0 -4 -10 -25
-23 -47 -22 -38 -24 -39 -47 -26 -34 19 -38 18 -54 -14 -14 -27 -14 -29 15
-46 28 -16 28 -18 14 -44 -30 -56 -29 -55 -73 -33 l-41 21 -16 -29 -15 -30 73
-40 c55 -31 75 -37 83 -28 16 18 184 324 184 335 0 11 -121 82 -139 82 -6 0
-15 -9 -21 -19z"/>
<path d="M1479 561 c-22 -23 -29 -39 -29 -68 0 -74 62 -235 106 -275 51 -45
123 -39 150 14 23 44 14 116 -26 212 -42 100 -84 146 -134 146 -28 0 -45 -7
-67 -29z m85 -63 c23 -37 87 -218 81 -228 -15 -25 -35 -4 -63 63 -43 103 -63
167 -57 178 10 15 24 10 39 -13z"/>
<path d="M987 563 c-8 -14 -90 -384 -86 -387 2 -2 16 -6 30 -10 26 -6 27 -4
44 67 24 100 34 114 35 47 2 -102 12 -133 45 -142 16 -4 33 -4 37 0 8 8 88
346 88 372 0 17 -46 37 -57 26 -3 -2 -15 -49 -28 -103 -25 -110 -30 -105 -40
39 -6 77 -9 87 -28 92 -29 8 -35 7 -40 -1z"/>
<path d="M1346 532 c-3 -5 -1 -53 3 -108 5 -54 8 -100 6 -102 -1 -2 -22 45
-45 103 -40 99 -44 105 -71 105 -29 0 -29 -1 -28 -57 0 -32 6 -123 12 -203
l12 -145 33 -3 34 -3 -7 93 -6 93 37 -87 c35 -86 37 -88 69 -88 19 0 36 4 39
9 3 5 -1 91 -9 192 -8 101 -15 189 -15 196 0 14 -56 18 -64 5z"/>
</g>
</svg>
