<svg xmlns="http://www.w3.org/2000/svg" viewBox="0 0 841.89 330.63"><defs><style>.cls-1{fill:#231f20;}</style></defs><title>zam-landscape</title><g id="Layer_2" data-name="Layer 2"><g id="Layer_1-2" data-name="Layer 1"><path class="cls-1" d="M816.88,277.8h16.83l8.18-116.89h-33.2Zm-6.78,49.56h30.39V297H810.1Zm-108.48,0h25.72V226.6h.47L760.3,327.36h23.61V160.91H759.6v87.9h-.47l-27.82-87.9H701.62Zm-83.45,0h70.36V301.64h-40V256.29h28.29V229.17H648.56V186.62H686.9V160.91H618.17Zm-129,0h22.44v-122H512l20.34,122H549.2l20.58-122h.46v122h27.12V160.91H557.85l-14.26,85.33h-.47l-13.55-85.33H489.12Z"/><path class="cls-1" d="M363.52,327.36H386v-122h.46l20.34,122H423.6l20.58-122h.46v122h27.12V160.91H432.25L418,246.24h-.46L404,160.91H363.52Zm-100.29,0h25.49l4.2-36.94h24.55l4.44,36.94h29.22L330.56,160.91H286.61Zm51.67-61.25H296l9.59-79.49H306ZM176.5,279.2A108.36,108.36,0,0,0,178,297a48.74,48.74,0,0,0,5.85,16.6,35.06,35.06,0,0,0,11.92,12.27q7.59,4.79,19.75,4.79A42.66,42.66,0,0,0,233.66,327a37.51,37.51,0,0,0,13.09-9.82,42.14,42.14,0,0,0,7.95-14.49,57.76,57.76,0,0,0,2.69-17.89,51.67,51.67,0,0,0-4.09-21.27,70,70,0,0,0-10.17-16.37,96.37,96.37,0,0,0-13.33-13.09q-7.25-5.84-13.32-11.34a67.27,67.27,0,0,1-10.17-11.33,21.94,21.94,0,0,1-4.09-12.86q0-6.78,3-11a9.78,9.78,0,0,1,8.41-4.21,9.52,9.52,0,0,1,7,2.57,14.23,14.23,0,0,1,3.62,6.43,39.39,39.39,0,0,1,1.29,8.18q.22,4.33.23,7.84H253a98.35,98.35,0,0,0-2.46-20.58,47.51,47.51,0,0,0-6.78-16,31.58,31.58,0,0,0-11.8-10.4q-7.26-3.75-17.53-3.74a38,38,0,0,0-16.95,3.62,36.08,36.08,0,0,0-12.28,9.7,42.82,42.82,0,0,0-7.48,14.38A59.13,59.13,0,0,0,175.1,203q0,12.39,4.09,21.51a65.37,65.37,0,0,0,10.17,16.13,92.41,92.41,0,0,0,13.33,12.62q7.23,5.61,13.32,11a65,65,0,0,1,10.17,11.22,22.67,22.67,0,0,1,4.09,13.33,22,22,0,0,1-.7,5.37,16.76,16.76,0,0,1-2.34,5.26,12.73,12.73,0,0,1-4.21,4,12.23,12.23,0,0,1-6.31,1.52c-3.27,0-5.81-.9-7.6-2.69a15.26,15.26,0,0,1-3.85-6.66,36.77,36.77,0,0,1-1.41-8.42q-.22-4.44-.23-7.95Zm-92.34,6.55q0,12.39,2.8,20.92a34.9,34.9,0,0,0,8,13.79,31,31,0,0,0,12.28,7.72,48.88,48.88,0,0,0,16,2.45q18.24,0,28.52-10.17T162,285.75V160.91H136.29V289.72a22.17,22.17,0,0,1-2.45,10.64q-2.46,4.56-8.77,4.56a10.18,10.18,0,0,1-5.38-1.29,8.82,8.82,0,0,1-3.27-3.5,14.45,14.45,0,0,1-1.52-4.91,43.19,43.19,0,0,1-.35-5.5V160.91H84.16ZM0,327.36H71.54V301.64H33.2l39.51-125.3V160.91H3.27v25.71H38.34L0,310.29Z"/><path class="cls-1" d="M797.23,134h24V22.88h20.67V2.58H776.56v20.3h20.67ZM717,134h56.47v-20.3H743.16l31.19-98.92V2.58H719.54v20.3h27.68L717,120.51Zm-45,0h24V22.88h20.67V2.58H651.25v20.3h20.67ZM594,134h55.55v-20.3H618V77.88h22.33V56.47H618V22.88H648.3V2.58H594ZM581.31,2.58h-24v100q0,5.36-2,8.4a6.48,6.48,0,0,1-5.72,3,57.24,57.24,0,0,1-8.12-.55v20.85c2,.25,4,.49,6.09.74a60,60,0,0,0,6.83.37,50.41,50.41,0,0,0,12.27-1.29,18.1,18.1,0,0,0,8.31-4.43,19,19,0,0,0,4.79-8.31,44.16,44.16,0,0,0,1.57-12.73Z"/><path class="cls-1" d="M445.62,134h24.73q13.84,0,21.87-4.89a30.75,30.75,0,0,0,12.09-13.65,63.25,63.25,0,0,0,5.16-20.86q1.11-12.09,1.11-26.3,0-14.94-1.2-27a56,56,0,0,0-5.72-20.67A31.5,31.5,0,0,0,490.37,7.29q-8.76-4.71-23.9-4.71H445.62Zm24-111.1c3.81,0,6.77.53,8.86,1.57s3.66,3.14,4.71,6.28,1.69,7.66,1.93,13.56.37,13.84.37,23.81S485.36,86,485.11,92s-.89,10.55-1.93,13.75-2.62,5.32-4.71,6.36-5.05,1.57-8.86,1.57ZM364.23,134h20.3V54.44h.37L410.56,134H429.2V2.58H410V72h-.37l-22-69.39H364.23Zm-39.49,0h24V2.58h-24ZM250.55,96a85.2,85.2,0,0,0,1.2,14,38.47,38.47,0,0,0,4.62,13.1,27.68,27.68,0,0,0,9.41,9.69q6,3.78,15.59,3.79a33.88,33.88,0,0,0,14.31-2.86A29.66,29.66,0,0,0,306,126a33.27,33.27,0,0,0,6.28-11.44,45.65,45.65,0,0,0,2.12-14.12,40.76,40.76,0,0,0-3.23-16.79,55.32,55.32,0,0,0-8-12.92,76.59,76.59,0,0,0-10.52-10.33q-5.72-4.62-10.52-9a53.55,53.55,0,0,1-8-8.95,17.35,17.35,0,0,1-3.23-10.15,14.5,14.5,0,0,1,2.4-8.68,7.76,7.76,0,0,1,6.65-3.32,7.49,7.49,0,0,1,5.53,2,11.14,11.14,0,0,1,2.86,5.08,30.19,30.19,0,0,1,1,6.45q.18,3.42.18,6.19H310.9A77,77,0,0,0,309,23.81a37.48,37.48,0,0,0-5.35-12.64A25,25,0,0,0,294.29,3a33.33,33.33,0,0,0-27.22-.09,28.5,28.5,0,0,0-9.69,7.66,33.72,33.72,0,0,0-5.9,11.35,46.6,46.6,0,0,0-2,13.93,41.06,41.06,0,0,0,3.23,17,51.24,51.24,0,0,0,8,12.73,72.82,72.82,0,0,0,10.52,10q5.73,4.42,10.52,8.67a51.23,51.23,0,0,1,8,8.86A17.92,17.92,0,0,1,293,103.53a17.47,17.47,0,0,1-.55,4.25,13.31,13.31,0,0,1-1.85,4.15,10.18,10.18,0,0,1-3.32,3.14,9.67,9.67,0,0,1-5,1.2,8.08,8.08,0,0,1-6-2.13,12.06,12.06,0,0,1-3.05-5.26,28.89,28.89,0,0,1-1.1-6.64Q272,98.73,272,96Z"/><path class="cls-1" d="M151,134h24V77.51h5.72L191.93,134h24.18L201.89,72a21.79,21.79,0,0,0,6.74-6.09A34.14,34.14,0,0,0,213,57.76a42.69,42.69,0,0,0,2.3-9,62.5,62.5,0,0,0,.65-8.86q0-10.33-2.77-17.44a29.34,29.34,0,0,0-7.75-11.53,29.65,29.65,0,0,0-12-6.37A58.28,58.28,0,0,0,177.9,2.58H151Zm24-112.2h3.69a12.75,12.75,0,0,1,9.69,3.78q3.6,3.78,3.6,14.49a35.79,35.79,0,0,1-.65,6.83,18,18,0,0,1-2.12,5.81,12.69,12.69,0,0,1-3.78,4.06,9.84,9.84,0,0,1-5.63,1.57H175ZM110.54,134h24V2.58h-24Zm-93,0h21L50.38,50.75h.37L62.19,134H84L101.13,2.58H84L74.56,79.73h-.37L63.67,2.58H42.08L30.64,79.73h-.37L21.78,2.58H0Z"/></g></g></svg>