<svg xmlns="http://www.w3.org/2000/svg" viewBox="0 0 411.49 841.89"><defs><style>.cls-1{fill:#231f20;}</style></defs><title>zam-portrait</title><g id="Layer_2" data-name="Layer 2"><g id="Layer_1-2" data-name="Layer 1"><path class="cls-1" d="M339.1,798.66h14.68l7.14-102H332Zm-5.91,43.23H359.7V815.38H333.19Zm-94.62,0H261V754h.41l28.34,87.89h20.6V696.7H289.14v76.67h-.4L264.47,696.7h-25.9Zm-72.79,0h61.38V819.46H192.29V779.9H217V756.25H192.29V719.13h33.44V696.7H165.78Zm-112.56,0H72.8V735.45h.4L90.94,841.89h14.69l17.94-106.44H124V841.89h23.65V696.7H113.17l-12.44,74.43h-.41L88.5,696.7H53.22Z"/><path class="cls-1" d="M317.08,667.71h19.57V561.27h.41L354.8,667.71h14.68l17.95-106.44h.41V667.71h23.65V522.53H377L364.59,597h-.41l-11.82-74.43H317.08Zm-87.48,0h22.23l3.67-32.21h21.41l3.87,32.21h25.49L288.33,522.53H250Zm45.07-53.42H258.15L266.51,545h.41ZM154,625.71a93.64,93.64,0,0,0,1.33,15.5,42.46,42.46,0,0,0,5.1,14.47,30.52,30.52,0,0,0,10.4,10.71q6.61,4.17,17.23,4.18a37.23,37.23,0,0,0,15.8-3.16,32.84,32.84,0,0,0,11.42-8.57,36.67,36.67,0,0,0,6.93-12.64,50.38,50.38,0,0,0,2.35-15.6,45.07,45.07,0,0,0-3.57-18.55,61,61,0,0,0-8.87-14.28,84.19,84.19,0,0,0-11.63-11.42q-6.31-5.08-11.62-9.89a58.73,58.73,0,0,1-8.87-9.89,19.09,19.09,0,0,1-3.57-11.21,16,16,0,0,1,2.65-9.59,8.58,8.58,0,0,1,7.34-3.67,8.25,8.25,0,0,1,6.12,2.25,12.26,12.26,0,0,1,3.16,5.6,33.93,33.93,0,0,1,1.12,7.14c.14,2.52.21,4.79.21,6.83h23.65A85.8,85.8,0,0,0,218.49,546a41.41,41.41,0,0,0-5.91-14,27.65,27.65,0,0,0-10.3-9.07,36.79,36.79,0,0,0-30.08-.11,31.27,31.27,0,0,0-10.7,8.47A37.19,37.19,0,0,0,155,543.84a51.56,51.56,0,0,0-2.24,15.39A45.47,45.47,0,0,0,156.3,578a56.5,56.5,0,0,0,8.87,14.07,80,80,0,0,0,11.62,11q6.32,4.9,11.62,9.59a56,56,0,0,1,8.87,9.79,19.76,19.76,0,0,1,3.57,11.62,19.18,19.18,0,0,1-.61,4.69,14.74,14.74,0,0,1-2,4.59,11.25,11.25,0,0,1-3.67,3.46,10.59,10.59,0,0,1-5.5,1.33,8.93,8.93,0,0,1-6.63-2.35A13.33,13.33,0,0,1,179,640a31.55,31.55,0,0,1-1.22-7.34c-.14-2.58-.2-4.89-.2-6.93Zm-80.54,5.71a59.06,59.06,0,0,0,2.44,18.25,30.42,30.42,0,0,0,6.94,12,27,27,0,0,0,10.7,6.73,43,43,0,0,0,14,2.14q15.9,0,24.88-8.87t9-30.28V522.53H118.88V634.88a19.24,19.24,0,0,1-2.14,9.28q-2.14,4-7.65,4A9,9,0,0,1,104.4,647a7.71,7.71,0,0,1-2.85-3.06,12.53,12.53,0,0,1-1.33-4.28,37.83,37.83,0,0,1-.3-4.8V522.53H73.41ZM0,667.71H62.4V645.28H29L63.42,536V522.53H2.85V545H33.44L0,652.83Z"/><path class="cls-1" d="M327.58,493.54h26.51V370.78h22.84V348.35H304.74v22.43h22.84Zm-88.7,0h62.4V471.11H267.83l34.47-109.3V348.35H241.73v22.43h30.59L238.88,478.65Zm-49.76,0h26.51V370.78h22.84V348.35H166.29v22.43h22.83Zm-86.05,0h61.38V471.11H129.58V431.55h24.68V407.89H129.58V370.78H163V348.35h-60ZM89,348.35H62.5V458.87q0,5.92-2.24,9.28a7.2,7.2,0,0,1-6.33,3.37,63.17,63.17,0,0,1-9-.62V494l6.73.81a65.13,65.13,0,0,0,7.55.41,55.77,55.77,0,0,0,13.56-1.43A19.93,19.93,0,0,0,82,488.85a20.93,20.93,0,0,0,5.3-9.18A48.81,48.81,0,0,0,89,465.6Z"/><path class="cls-1" d="M279.46,319.36h27.32q15.3,0,24.17-5.4a33.91,33.91,0,0,0,13.35-15.09,69.76,69.76,0,0,0,5.71-23q1.23-13.36,1.23-29.06,0-16.52-1.33-29.87t-6.32-22.84a34.77,34.77,0,0,0-14.68-14.68q-9.69-5.2-26.41-5.2h-23ZM306,196.61q6.31,0,9.78,1.73t5.2,6.93q1.74,5.21,2.15,15t.4,26.31q0,16.51-.4,26.4T321,288.16q-1.72,5.31-5.2,7c-2.31,1.16-5.57,1.73-9.78,1.73ZM189.53,319.36H212V231.48h.41l28.34,87.88h20.6V174.18H240.1v76.67h-.4l-24.27-76.67h-25.9Zm-43.63,0h26.51V174.18H145.9Zm-82-42a93.43,93.43,0,0,0,1.33,15.49,42.44,42.44,0,0,0,5.1,14.48A30.69,30.69,0,0,0,80.75,318q6.61,4.17,17.23,4.18a37.38,37.38,0,0,0,15.8-3.16,32.84,32.84,0,0,0,11.42-8.57,36.67,36.67,0,0,0,6.93-12.64,50.38,50.38,0,0,0,2.35-15.6,45,45,0,0,0-3.57-18.56A61.11,61.11,0,0,0,122,249.42,84.68,84.68,0,0,0,110.42,238q-6.33-5.1-11.63-9.89a59.16,59.16,0,0,1-8.87-9.89A19.13,19.13,0,0,1,86.35,207,16,16,0,0,1,89,197.42a8.55,8.55,0,0,1,7.34-3.67,8.26,8.26,0,0,1,6.11,2.24,12.34,12.34,0,0,1,3.16,5.61,33.92,33.92,0,0,1,1.13,7.14c.13,2.52.2,4.79.2,6.83H130.6a85.13,85.13,0,0,0-2.14-17.94,41.41,41.41,0,0,0-5.91-14,27.68,27.68,0,0,0-10.3-9.08A33,33,0,0,0,97,171.32a33.2,33.2,0,0,0-14.79,3.16,31.37,31.37,0,0,0-10.7,8.46,37.38,37.38,0,0,0-6.53,12.54,52,52,0,0,0-2.24,15.4,45.47,45.47,0,0,0,3.57,18.76,56.79,56.79,0,0,0,8.87,14.07,80.56,80.56,0,0,0,11.62,11q6.31,4.89,11.63,9.59a56.78,56.78,0,0,1,8.87,9.78,19.85,19.85,0,0,1,3.56,11.63,19.25,19.25,0,0,1-.61,4.69,14.59,14.59,0,0,1-2,4.58,11.08,11.08,0,0,1-3.67,3.47,10.57,10.57,0,0,1-5.5,1.33,8.93,8.93,0,0,1-6.63-2.35A13.41,13.41,0,0,1,89,291.63a31.55,31.55,0,0,1-1.23-7.34c-.14-2.58-.2-4.89-.2-6.93Z"/><path class="cls-1" d="M255.9,145.19h26.51V82.79h6.32l12.44,62.4h26.72l-15.7-68.52a24.4,24.4,0,0,0,7.44-6.73,37.61,37.61,0,0,0,4.79-9A47.28,47.28,0,0,0,327,51a71.54,71.54,0,0,0,.71-9.79q0-11.41-3.06-19.27a32.45,32.45,0,0,0-8.56-12.74,32.68,32.68,0,0,0-13.26-7A64,64,0,0,0,285.68,0H255.9Zm26.51-124h4.08q6.74,0,10.71,4.18t4,16a39.13,39.13,0,0,1-.71,7.55,19.94,19.94,0,0,1-2.35,6.42,13.75,13.75,0,0,1-4.18,4.49,10.83,10.83,0,0,1-6.21,1.73h-5.31Zm-71.16,124h26.51V0H211.25Zm-102.77,0h23.24l13.05-92h.41l12.64,92h24.07L200.85,0h-19l-10.4,85.24h-.41L159.46,0H135.6L123,85.24h-.41L113.17,0H89.11Z"/></g></g></svg>